<svg xmlns="http://www.w3.org/2000/svg" width="747.861" height="700" viewBox="0 0 747.861 700">
  <g id="アートワーク_2" data-name="アートワーク 2" transform="translate(373.931 350)">
    <g id="グループ_77" data-name="グループ 77" transform="translate(-373.931 -350)">
      <g id="グループ_76" data-name="グループ 76" transform="translate(0)">
        <g id="グループ_74" data-name="グループ 74">
          <path id="パス_69" data-name="パス 69" d="M235.365,339.558H60.25C21.239,339.558,0,325.109,0,286.011V55.672C0,15.3,21.239,0,60.683,0H235.365V77.771L89.291,78.2V261.787h56.627V147.893h89.447Z" fill="#e3e3e3"/>
          <path id="パス_70" data-name="パス 70" d="M491.613,339.558H402.487V225.239H345.376V339.558H256.248V0H428.879c40.489,0,62.734,15.3,62.734,55.672v87.121c0,25.5-12.457,37.823-32.923,43.773v.849c20.021,2.551,32.923,14.451,32.923,39.949ZM402.487,147.893V77.771H345.376v70.122Z" fill="#e3e3e3"/>
          <path id="パス_71" data-name="パス 71" d="M747.861,339.558H658.735V225.239h-57.11V339.558H512.5V55.672C512.5,15.3,534.128,0,573.5,0H747.861ZM658.735,147.893V77.771h-57.11v70.122Z" fill="#e3e3e3"/>
        </g>
        <g id="グループ_75" data-name="グループ 75">
          <path id="パス_72" data-name="パス 72" d="M235.365,522.358c0,58-27.512,111.823-58.906,157.566A46.347,46.347,0,0,1,138.234,700H46.526A46.525,46.525,0,0,1,0,653.474V360.442H89.291V511.309l2.263,107.52s54.519-68,54.519-107.52V360.442h89.292Z" fill="#e3e3e3"/>
          <path id="パス_73" data-name="パス 73" d="M491.613,700H256.248V360.442H491.613v77.771H350.4v51.848H491.613v77.345H350.4v54.822H491.613Z" fill="#e3e3e3"/>
          <path id="パス_74" data-name="パス 74" d="M747.861,700H512.5V360.442h89.128V622.228H747.861Z" fill="#e3e3e3"/>
          <path id="パス_75" data-name="パス 75" d="M512.5,530.221" fill="#e3e3e3"/>
        </g>
      </g>
    </g>
  </g>
</svg>
