<svg xmlns="http://www.w3.org/2000/svg" width="300" height="68" viewBox="0 0 300 68">
  <g id="アートワーク_2" data-name="アートワーク 2" transform="translate(150 33.863)">
    <g id="グループ_51" data-name="グループ 51" transform="translate(-150 -33.863)">
      <path id="パス_57" data-name="パス 57" d="M46.944,68H12.017C4.236,68,0,65.106,0,57.277V11.149C0,3.064,4.236,0,12.1,0H46.944V15.574l-29.135.085V52.425H29.1V29.617h17.84Z" fill="#f3f2f7"/>
      <path id="パス_58" data-name="パス 58" d="M290.914,68H273.1V45.106H262.989V68H245.18V0h33.544c7.867,0,12.19,3.064,12.19,11.149V28.6c0,5.106-2.421,7.575-6.4,8.766v.17c3.891.511,6.4,2.894,6.4,8ZM273.1,29.617V15.574H262.989V29.617Z" transform="translate(-194.119)" fill="#f3f2f7"/>
      <path id="パス_59" data-name="パス 59" d="M531.577,68H513.768V49.7H502.356V68H484.547V11.149C484.547,3.064,488.869,0,496.737,0h34.84ZM513.768,34.3V15.574H502.356V34.3Z" transform="translate(-383.636 0)" fill="#f3f2f7"/>
      <path id="パス_60" data-name="パス 60" d="M777.084,32.425c0,11.615-5.487,22.394-11.749,31.554A9.233,9.233,0,0,1,757.711,68H739.42a9.3,9.3,0,0,1-9.28-9.317V0h17.809V30.213l.451,21.532s10.874-13.617,10.874-21.532V0h17.81Z" transform="translate(-578.082)" fill="#f3f2f7"/>
      <path id="パス_61" data-name="パス 61" d="M1019.842,68H975.32V0h44.522V15.574H993.129V25.958h26.713V41.447H993.129V52.425h26.713Z" transform="translate(-772.201)" fill="#f3f2f7"/>
      <path id="パス_62" data-name="パス 62" d="M1261.718,68h-47.031V0H1232.5V52.425h29.221Z" transform="translate(-961.718)" fill="#f3f2f7"/>
    </g>
  </g>
</svg>
